<svg width="150" height="60" viewBox="0 0 150 60" fill="none" xmlns="http://www.w3.org/2000/svg">
<g clip-path="url(#clip0_430_3882)">
<path fill-rule="evenodd" clip-rule="evenodd" d="M8.57872 58.4892C10.3149 59.1531 12.217 59.485 14.2851 59.485C15.5343 59.485 16.7556 59.3622 17.9489 59.1167V55.6159C16.8366 55.923 15.6792 56.0765 14.4766 56.0765C12.9447 56.0765 11.5277 55.8212 10.2255 55.3105C8.9234 54.7999 7.78723 54.085 6.81702 53.1658C5.87234 52.2212 5.13191 51.1233 4.59574 49.8722C4.08511 48.5956 3.82979 47.2297 3.82979 45.7744C3.82979 44.2935 4.08511 42.9275 4.59574 41.6765C5.13191 40.3999 5.87234 39.302 6.81702 38.3829C7.78723 37.4637 8.9234 36.7488 10.2255 36.2382C11.5532 35.7276 12.983 35.4722 14.5149 35.4722C16.0213 35.4722 17.4128 35.7276 18.6894 36.2382C19.9915 36.7233 21.1915 37.502 22.2894 38.5744L24.6638 36.1999C23.4383 34.8212 21.9447 33.7871 20.183 33.0978C18.4213 32.4084 16.4809 32.0637 14.3617 32.0637C12.2681 32.0637 10.3532 32.4084 8.61702 33.0978C6.88085 33.7616 5.3617 34.719 4.05957 35.9701C2.78298 37.1956 1.78723 38.6382 1.07234 40.2978C0.357447 41.9573 0 43.7829 0 45.7744C0 47.7658 0.357447 49.5914 1.07234 51.2509C1.78723 52.9105 2.78298 54.3658 4.05957 55.6169C5.33617 56.8424 6.84255 57.7999 8.57872 58.4892ZM20.7574 52.1573V54.3454V58.2779C22.1336 57.7198 23.3591 56.986 24.434 56.0765V45.6212H20.7574V52.1573ZM38.239 59.1786V49.8593L40.3792 46.3355L48.8858 32.3701H52.6773L42.0304 49.9018V59.1786H38.239ZM31.69 32.3701L38.6477 43.8378L36.6168 47.1814L27.5921 32.3701H31.69ZM56.1142 59.1786V32.3701H59.2546L68.8225 48.4893L66.9485 51.6983L59.7908 39.7511V59.1786H56.1142ZM72.0472 48.4481L72.046 48.4474L81.4672 32.3701H84.6077L84.646 59.1786H80.9694L80.9336 39.6294L71.2417 55.9233H69.48L68.5698 54.4036L72.0472 48.4481ZM92.6917 32.3701V59.1786H96.5215V32.3701H92.6917ZM108.377 59.1786V48.3403H121.82V45.0467H108.377H104.547V59.1786H108.377ZM104.547 42.4935H108.377V35.702H123.467V32.3701H104.547V42.4935ZM135.33 49.8708V59.1786H139.121V49.9018L149.768 32.3701H145.977L139.268 43.3851L139.269 43.386L135.33 49.8708ZM133.711 47.1872L135.742 43.8436L128.781 32.3701H124.683L133.711 47.1872Z" fill="black"/>
<path fill-rule="evenodd" clip-rule="evenodd" d="M60.4641 2.81308C60.4641 1.69417 61.3734 0.787109 62.4951 0.787109H67.5727C68.6942 0.787109 69.6031 1.69417 69.6031 2.81308V11.9299H79.7584V2.81308C79.7584 1.69417 80.6674 0.787109 81.7888 0.787109H86.8665C87.988 0.787109 88.8976 1.69417 88.8976 2.81308V4.83905H92.9591C94.0812 4.83905 94.9901 5.74611 94.9901 6.86502V11.9299H97.0212V13.9559H94.9901V19.0208C94.9901 20.1397 94.0812 21.0468 92.9591 21.0468H88.8976V23.0728C88.8976 24.1917 87.988 25.0987 86.8665 25.0987H81.7888C80.6674 25.0987 79.7584 24.1917 79.7584 23.0728V13.9559H69.6031V23.0728C69.6031 24.1917 68.6942 25.0987 67.5727 25.0987H62.4951C61.3734 25.0987 60.4641 24.1917 60.4641 23.0728V21.0465H56.4019C55.2803 21.0465 54.371 20.1395 54.371 19.0206V13.9559H52.3403V11.9299H54.371V6.86477C54.371 5.74586 55.2803 4.8388 56.4019 4.8388H60.4639L60.4641 2.81308ZM86.8665 2.81308H81.7888V23.0728H86.8665V2.81308ZM88.8976 19.0208H92.9591V6.86502H88.8976V19.0208ZM67.5727 2.81308H62.4951V23.0728H67.5727V2.81308ZM60.4639 6.86477H56.4019V19.0206H60.4639V6.86477Z" fill="black"/>
</g>
<defs>
<clipPath id="clip0_430_3882">
<rect width="150" height="58.7234" fill="white" transform="translate(0 0.787109)"/>
</clipPath>
</defs>
</svg>
